G75*
G70*
%OFA0B0*%
%FSLAX24Y24*%
%IPPOS*%
%LPD*%
%AMOC8*
5,1,8,0,0,1.08239X$1,22.5*
%
%ADD10R,0.0354X0.0315*%
%ADD11R,0.0433X0.0394*%
D10*
X009759Y007932D03*
X010546Y008306D03*
X009759Y008680D03*
X009759Y009482D03*
X010546Y009856D03*
X009759Y010230D03*
X009759Y011082D03*
X010546Y011456D03*
X009759Y011830D03*
X009759Y012632D03*
X010546Y013006D03*
X009759Y013380D03*
X009759Y015932D03*
X009759Y016680D03*
X010546Y016306D03*
X009759Y017482D03*
X010546Y017856D03*
X009759Y018230D03*
X009759Y019082D03*
X009759Y019830D03*
X010546Y019456D03*
X009759Y020632D03*
X010546Y021006D03*
X009759Y021380D03*
X009759Y023932D03*
X010546Y024306D03*
X009759Y024680D03*
X009759Y025482D03*
X009759Y026230D03*
X010546Y025856D03*
X009759Y027082D03*
X010546Y027456D03*
X009759Y027830D03*
X009759Y028632D03*
X009759Y029380D03*
X010546Y029006D03*
X009759Y031932D03*
X010546Y032306D03*
X009759Y032680D03*
X009759Y033482D03*
X010546Y033856D03*
X009759Y034230D03*
X009759Y035082D03*
X010546Y035456D03*
X009759Y035830D03*
X009759Y036632D03*
X010546Y037006D03*
X009759Y037380D03*
X016759Y037380D03*
X016759Y036632D03*
X016759Y035830D03*
X016759Y035082D03*
X016759Y034230D03*
X016759Y033482D03*
X016759Y032680D03*
X016759Y031932D03*
X017546Y032306D03*
X017546Y033856D03*
X017546Y035456D03*
X017546Y037006D03*
X023759Y036632D03*
X023759Y035830D03*
X024546Y035456D03*
X023759Y035082D03*
X023759Y034230D03*
X024546Y033856D03*
X023759Y033482D03*
X023759Y032680D03*
X024546Y032306D03*
X023759Y031932D03*
X023759Y029380D03*
X023759Y028632D03*
X024546Y029006D03*
X023759Y027830D03*
X024546Y027456D03*
X023759Y027082D03*
X023759Y026230D03*
X023759Y025482D03*
X024546Y025856D03*
X023759Y024680D03*
X024546Y024306D03*
X023759Y023932D03*
X023759Y021380D03*
X024546Y021006D03*
X023759Y020632D03*
X023759Y019830D03*
X023759Y019082D03*
X024546Y019456D03*
X023759Y018230D03*
X024546Y017856D03*
X023759Y017482D03*
X023759Y016680D03*
X023759Y015932D03*
X024546Y016306D03*
X023759Y013380D03*
X024546Y013006D03*
X023759Y012632D03*
X023759Y011830D03*
X024546Y011456D03*
X023759Y011082D03*
X023759Y010230D03*
X024546Y009856D03*
X023759Y009482D03*
X023759Y008680D03*
X024546Y008306D03*
X023759Y007932D03*
X017546Y008306D03*
X016759Y008680D03*
X016759Y009482D03*
X016759Y010230D03*
X016759Y011082D03*
X016759Y011830D03*
X016759Y012632D03*
X016759Y013380D03*
X017546Y013006D03*
X017546Y011456D03*
X017546Y009856D03*
X016759Y007932D03*
X016759Y015932D03*
X016759Y016680D03*
X016759Y017482D03*
X016759Y018230D03*
X016759Y019082D03*
X016759Y019830D03*
X016759Y020632D03*
X016759Y021380D03*
X017546Y021006D03*
X017546Y019456D03*
X017546Y017856D03*
X017546Y016306D03*
X016759Y023932D03*
X016759Y024680D03*
X016759Y025482D03*
X016759Y026230D03*
X016759Y027082D03*
X016759Y027830D03*
X016759Y028632D03*
X016759Y029380D03*
X017546Y029006D03*
X017546Y027456D03*
X017546Y025856D03*
X017546Y024306D03*
X030759Y023932D03*
X030759Y024680D03*
X030759Y025482D03*
X030759Y026230D03*
X030759Y027082D03*
X030759Y027830D03*
X030759Y028632D03*
X030759Y029380D03*
X031546Y029006D03*
X031546Y027456D03*
X031546Y025856D03*
X031546Y024306D03*
X030759Y021380D03*
X030759Y020632D03*
X030759Y019830D03*
X030759Y019082D03*
X030759Y018230D03*
X030759Y017482D03*
X030759Y016680D03*
X030759Y015932D03*
X031546Y016306D03*
X031546Y017856D03*
X031546Y019456D03*
X031546Y021006D03*
X037759Y020632D03*
X038546Y021006D03*
X037759Y021380D03*
X037759Y019830D03*
X037759Y019082D03*
X038546Y019456D03*
X037759Y018230D03*
X038546Y017856D03*
X037759Y017482D03*
X037759Y016680D03*
X037759Y015932D03*
X038546Y016306D03*
X037759Y013380D03*
X038546Y013006D03*
X037759Y012632D03*
X037759Y011830D03*
X038546Y011456D03*
X037759Y011082D03*
X037759Y010230D03*
X038546Y009856D03*
X037759Y009482D03*
X037759Y008680D03*
X038546Y008306D03*
X037759Y007932D03*
X031546Y008306D03*
X030759Y008680D03*
X030759Y009482D03*
X030759Y010230D03*
X030759Y011082D03*
X030759Y011830D03*
X030759Y012632D03*
X030759Y013380D03*
X031546Y013006D03*
X031546Y011456D03*
X031546Y009856D03*
X030759Y007932D03*
X037759Y023932D03*
X038546Y024306D03*
X037759Y024680D03*
X037759Y025482D03*
X037759Y026230D03*
X038546Y025856D03*
X037759Y027082D03*
X038546Y027456D03*
X037759Y027830D03*
X037759Y028632D03*
X037759Y029380D03*
X038546Y029006D03*
X037759Y031932D03*
X038546Y032306D03*
X037759Y032680D03*
X037759Y033482D03*
X038546Y033856D03*
X037759Y034230D03*
X037759Y035082D03*
X038546Y035456D03*
X037759Y035830D03*
X037759Y036632D03*
X038546Y037006D03*
X037759Y037380D03*
X031546Y037006D03*
X030759Y037380D03*
X030759Y036632D03*
X030759Y035830D03*
X030759Y035082D03*
X030759Y034230D03*
X030759Y033482D03*
X030759Y032680D03*
X030759Y031932D03*
X031546Y032306D03*
X031546Y033856D03*
X031546Y035456D03*
X024546Y037006D03*
X023759Y037380D03*
D11*
X009002Y007971D03*
X009002Y008641D03*
X009002Y009521D03*
X009002Y010191D03*
X009002Y011121D03*
X009002Y011791D03*
X009002Y012671D03*
X009002Y013341D03*
X011302Y013341D03*
X011302Y012671D03*
X011302Y011791D03*
X011302Y011121D03*
X011252Y010191D03*
X011252Y009521D03*
X011252Y008641D03*
X011252Y007971D03*
X016002Y007971D03*
X016002Y008641D03*
X016002Y009521D03*
X016002Y010191D03*
X016002Y011121D03*
X016002Y011791D03*
X016002Y012671D03*
X016002Y013341D03*
X018302Y013341D03*
X018302Y012671D03*
X018302Y011791D03*
X018302Y011121D03*
X018252Y010191D03*
X018252Y009521D03*
X018252Y008641D03*
X018252Y007971D03*
X023002Y007971D03*
X023002Y008641D03*
X023002Y009521D03*
X023002Y010191D03*
X023002Y011121D03*
X023002Y011791D03*
X023002Y012671D03*
X023002Y013341D03*
X025302Y013341D03*
X025302Y012671D03*
X025302Y011791D03*
X025302Y011121D03*
X025252Y010191D03*
X025252Y009521D03*
X025252Y008641D03*
X025252Y007971D03*
X030002Y007971D03*
X030002Y008641D03*
X030002Y009521D03*
X030002Y010191D03*
X030002Y011121D03*
X030002Y011791D03*
X030002Y012671D03*
X030002Y013341D03*
X032302Y013341D03*
X032302Y012671D03*
X032302Y011791D03*
X032302Y011121D03*
X032252Y010191D03*
X032252Y009521D03*
X032252Y008641D03*
X032252Y007971D03*
X037002Y007971D03*
X037002Y008641D03*
X037002Y009521D03*
X037002Y010191D03*
X037002Y011121D03*
X037002Y011791D03*
X037002Y012671D03*
X037002Y013341D03*
X039302Y013341D03*
X039302Y012671D03*
X039302Y011791D03*
X039302Y011121D03*
X039252Y010191D03*
X039252Y009521D03*
X039252Y008641D03*
X039252Y007971D03*
X039252Y015971D03*
X039252Y016641D03*
X039252Y017521D03*
X039252Y018191D03*
X039302Y019121D03*
X039302Y019791D03*
X039302Y020671D03*
X039302Y021341D03*
X037002Y021341D03*
X037002Y020671D03*
X037002Y019791D03*
X037002Y019121D03*
X037002Y018191D03*
X037002Y017521D03*
X037002Y016641D03*
X037002Y015971D03*
X032252Y015971D03*
X032252Y016641D03*
X032252Y017521D03*
X032252Y018191D03*
X032302Y019121D03*
X032302Y019791D03*
X032302Y020671D03*
X032302Y021341D03*
X030002Y021341D03*
X030002Y020671D03*
X030002Y019791D03*
X030002Y019121D03*
X030002Y018191D03*
X030002Y017521D03*
X030002Y016641D03*
X030002Y015971D03*
X025252Y015971D03*
X025252Y016641D03*
X025252Y017521D03*
X025252Y018191D03*
X025302Y019121D03*
X025302Y019791D03*
X025302Y020671D03*
X025302Y021341D03*
X023002Y021341D03*
X023002Y020671D03*
X023002Y019791D03*
X023002Y019121D03*
X023002Y018191D03*
X023002Y017521D03*
X023002Y016641D03*
X023002Y015971D03*
X018252Y015971D03*
X018252Y016641D03*
X018252Y017521D03*
X018252Y018191D03*
X018302Y019121D03*
X018302Y019791D03*
X018302Y020671D03*
X018302Y021341D03*
X016002Y021341D03*
X016002Y020671D03*
X016002Y019791D03*
X016002Y019121D03*
X016002Y018191D03*
X016002Y017521D03*
X016002Y016641D03*
X016002Y015971D03*
X011252Y015971D03*
X011252Y016641D03*
X011252Y017521D03*
X011252Y018191D03*
X011302Y019121D03*
X011302Y019791D03*
X011302Y020671D03*
X011302Y021341D03*
X009002Y021341D03*
X009002Y020671D03*
X009002Y019791D03*
X009002Y019121D03*
X009002Y018191D03*
X009002Y017521D03*
X009002Y016641D03*
X009002Y015971D03*
X009002Y023971D03*
X009002Y024641D03*
X009002Y025521D03*
X009002Y026191D03*
X009002Y027121D03*
X009002Y027791D03*
X009002Y028671D03*
X009002Y029341D03*
X011302Y029341D03*
X011302Y028671D03*
X011302Y027791D03*
X011302Y027121D03*
X011252Y026191D03*
X011252Y025521D03*
X011252Y024641D03*
X011252Y023971D03*
X016002Y023971D03*
X016002Y024641D03*
X016002Y025521D03*
X016002Y026191D03*
X016002Y027121D03*
X016002Y027791D03*
X016002Y028671D03*
X016002Y029341D03*
X018302Y029341D03*
X018302Y028671D03*
X018302Y027791D03*
X018302Y027121D03*
X018252Y026191D03*
X018252Y025521D03*
X018252Y024641D03*
X018252Y023971D03*
X023002Y023971D03*
X023002Y024641D03*
X023002Y025521D03*
X023002Y026191D03*
X023002Y027121D03*
X023002Y027791D03*
X023002Y028671D03*
X023002Y029341D03*
X025302Y029341D03*
X025302Y028671D03*
X025302Y027791D03*
X025302Y027121D03*
X025252Y026191D03*
X025252Y025521D03*
X025252Y024641D03*
X025252Y023971D03*
X030002Y023971D03*
X030002Y024641D03*
X030002Y025521D03*
X030002Y026191D03*
X030002Y027121D03*
X030002Y027791D03*
X030002Y028671D03*
X030002Y029341D03*
X032302Y029341D03*
X032302Y028671D03*
X032302Y027791D03*
X032302Y027121D03*
X032252Y026191D03*
X032252Y025521D03*
X032252Y024641D03*
X032252Y023971D03*
X037002Y023971D03*
X037002Y024641D03*
X037002Y025521D03*
X037002Y026191D03*
X037002Y027121D03*
X037002Y027791D03*
X037002Y028671D03*
X037002Y029341D03*
X039302Y029341D03*
X039302Y028671D03*
X039302Y027791D03*
X039302Y027121D03*
X039252Y026191D03*
X039252Y025521D03*
X039252Y024641D03*
X039252Y023971D03*
X039252Y031971D03*
X039252Y032641D03*
X039252Y033521D03*
X039252Y034191D03*
X039302Y035121D03*
X039302Y035791D03*
X039302Y036671D03*
X039302Y037341D03*
X037002Y037341D03*
X037002Y036671D03*
X037002Y035791D03*
X037002Y035121D03*
X037002Y034191D03*
X037002Y033521D03*
X037002Y032641D03*
X037002Y031971D03*
X032252Y031971D03*
X032252Y032641D03*
X032252Y033521D03*
X032252Y034191D03*
X032302Y035121D03*
X032302Y035791D03*
X032302Y036671D03*
X032302Y037341D03*
X030002Y037341D03*
X030002Y036671D03*
X030002Y035791D03*
X030002Y035121D03*
X030002Y034191D03*
X030002Y033521D03*
X030002Y032641D03*
X030002Y031971D03*
X025252Y031971D03*
X025252Y032641D03*
X025252Y033521D03*
X025252Y034191D03*
X025302Y035121D03*
X025302Y035791D03*
X025302Y036671D03*
X025302Y037341D03*
X023002Y037341D03*
X023002Y036671D03*
X023002Y035791D03*
X023002Y035121D03*
X023002Y034191D03*
X023002Y033521D03*
X023002Y032641D03*
X023002Y031971D03*
X018252Y031971D03*
X018252Y032641D03*
X018252Y033521D03*
X018252Y034191D03*
X018302Y035121D03*
X018302Y035791D03*
X018302Y036671D03*
X018302Y037341D03*
X016002Y037341D03*
X016002Y036671D03*
X016002Y035791D03*
X016002Y035121D03*
X016002Y034191D03*
X016002Y033521D03*
X016002Y032641D03*
X016002Y031971D03*
X011252Y031971D03*
X011252Y032641D03*
X011252Y033521D03*
X011252Y034191D03*
X011302Y035121D03*
X011302Y035791D03*
X011302Y036671D03*
X011302Y037341D03*
X009002Y037341D03*
X009002Y036671D03*
X009002Y035791D03*
X009002Y035121D03*
X009002Y034191D03*
X009002Y033521D03*
X009002Y032641D03*
X009002Y031971D03*
M02*
