G75*
G70*
%OFA0B0*%
%FSLAX24Y24*%
%IPPOS*%
%LPD*%
%AMOC8*
5,1,8,0,0,1.08239X$1,22.5*
%
%ADD10C,0.0277*%
%ADD11C,0.0867*%
%ADD12OC8,0.0720*%
D10*
X009365Y007156D03*
X009759Y007156D03*
X010152Y007156D03*
X010546Y007156D03*
X010940Y007156D03*
X013152Y009869D03*
X013152Y010262D03*
X013152Y010656D03*
X013152Y011050D03*
X013152Y011443D03*
X014152Y011443D03*
X014152Y011050D03*
X014152Y010656D03*
X014152Y010262D03*
X014152Y009869D03*
X016365Y007156D03*
X016759Y007156D03*
X017152Y007156D03*
X017546Y007156D03*
X017940Y007156D03*
X020152Y009869D03*
X020152Y010262D03*
X020152Y010656D03*
X020152Y011050D03*
X020152Y011443D03*
X021152Y011443D03*
X021152Y011050D03*
X021152Y010656D03*
X021152Y010262D03*
X021152Y009869D03*
X023365Y007156D03*
X023759Y007156D03*
X024152Y007156D03*
X024546Y007156D03*
X024940Y007156D03*
X027152Y009869D03*
X027152Y010262D03*
X027152Y010656D03*
X027152Y011050D03*
X027152Y011443D03*
X028152Y011443D03*
X028152Y011050D03*
X028152Y010656D03*
X028152Y010262D03*
X028152Y009869D03*
X030365Y007156D03*
X030759Y007156D03*
X031152Y007156D03*
X031546Y007156D03*
X031940Y007156D03*
X034152Y009869D03*
X034152Y010262D03*
X034152Y010656D03*
X034152Y011050D03*
X034152Y011443D03*
X035152Y011443D03*
X035152Y011050D03*
X035152Y010656D03*
X035152Y010262D03*
X035152Y009869D03*
X037365Y007156D03*
X037759Y007156D03*
X038152Y007156D03*
X038546Y007156D03*
X038940Y007156D03*
X041152Y009869D03*
X041152Y010262D03*
X041152Y010656D03*
X041152Y011050D03*
X041152Y011443D03*
X038940Y014156D03*
X038546Y014156D03*
X038152Y014156D03*
X037759Y014156D03*
X037365Y014156D03*
X037365Y015156D03*
X037759Y015156D03*
X038152Y015156D03*
X038546Y015156D03*
X038940Y015156D03*
X041152Y017869D03*
X041152Y018262D03*
X041152Y018656D03*
X041152Y019050D03*
X041152Y019443D03*
X038940Y022156D03*
X038546Y022156D03*
X038152Y022156D03*
X037759Y022156D03*
X037365Y022156D03*
X037365Y023156D03*
X037759Y023156D03*
X038152Y023156D03*
X038546Y023156D03*
X038940Y023156D03*
X041152Y025869D03*
X041152Y026262D03*
X041152Y026656D03*
X041152Y027050D03*
X041152Y027443D03*
X038940Y030156D03*
X038546Y030156D03*
X038152Y030156D03*
X037759Y030156D03*
X037365Y030156D03*
X037365Y031156D03*
X037759Y031156D03*
X038152Y031156D03*
X038546Y031156D03*
X038940Y031156D03*
X041152Y033869D03*
X041152Y034262D03*
X041152Y034656D03*
X041152Y035050D03*
X041152Y035443D03*
X038940Y038156D03*
X038546Y038156D03*
X038152Y038156D03*
X037759Y038156D03*
X037365Y038156D03*
X035152Y035443D03*
X035152Y035050D03*
X035152Y034656D03*
X035152Y034262D03*
X035152Y033869D03*
X034152Y033869D03*
X034152Y034262D03*
X034152Y034656D03*
X034152Y035050D03*
X034152Y035443D03*
X031940Y038156D03*
X031546Y038156D03*
X031152Y038156D03*
X030759Y038156D03*
X030365Y038156D03*
X028152Y035443D03*
X028152Y035050D03*
X028152Y034656D03*
X028152Y034262D03*
X028152Y033869D03*
X027152Y033869D03*
X027152Y034262D03*
X027152Y034656D03*
X027152Y035050D03*
X027152Y035443D03*
X024940Y038156D03*
X024546Y038156D03*
X024152Y038156D03*
X023759Y038156D03*
X023365Y038156D03*
X021152Y035443D03*
X021152Y035050D03*
X021152Y034656D03*
X021152Y034262D03*
X021152Y033869D03*
X020152Y033869D03*
X020152Y034262D03*
X020152Y034656D03*
X020152Y035050D03*
X020152Y035443D03*
X017940Y038156D03*
X017546Y038156D03*
X017152Y038156D03*
X016759Y038156D03*
X016365Y038156D03*
X014152Y035443D03*
X014152Y035050D03*
X014152Y034656D03*
X014152Y034262D03*
X014152Y033869D03*
X013152Y033869D03*
X013152Y034262D03*
X013152Y034656D03*
X013152Y035050D03*
X013152Y035443D03*
X010940Y038156D03*
X010546Y038156D03*
X010152Y038156D03*
X009759Y038156D03*
X009365Y038156D03*
X007152Y035443D03*
X007152Y035050D03*
X007152Y034656D03*
X007152Y034262D03*
X007152Y033869D03*
X009365Y031156D03*
X009759Y031156D03*
X010152Y031156D03*
X010546Y031156D03*
X010940Y031156D03*
X010940Y030156D03*
X010546Y030156D03*
X010152Y030156D03*
X009759Y030156D03*
X009365Y030156D03*
X007152Y027443D03*
X007152Y027050D03*
X007152Y026656D03*
X007152Y026262D03*
X007152Y025869D03*
X009365Y023156D03*
X009759Y023156D03*
X010152Y023156D03*
X010546Y023156D03*
X010940Y023156D03*
X010940Y022156D03*
X010546Y022156D03*
X010152Y022156D03*
X009759Y022156D03*
X009365Y022156D03*
X007152Y019443D03*
X007152Y019050D03*
X007152Y018656D03*
X007152Y018262D03*
X007152Y017869D03*
X009365Y015156D03*
X009759Y015156D03*
X010152Y015156D03*
X010546Y015156D03*
X010940Y015156D03*
X010940Y014156D03*
X010546Y014156D03*
X010152Y014156D03*
X009759Y014156D03*
X009365Y014156D03*
X007152Y011443D03*
X007152Y011050D03*
X007152Y010656D03*
X007152Y010262D03*
X007152Y009869D03*
X013152Y017869D03*
X013152Y018262D03*
X013152Y018656D03*
X013152Y019050D03*
X013152Y019443D03*
X014152Y019443D03*
X014152Y019050D03*
X014152Y018656D03*
X014152Y018262D03*
X014152Y017869D03*
X016365Y015156D03*
X016759Y015156D03*
X017152Y015156D03*
X017546Y015156D03*
X017940Y015156D03*
X017940Y014156D03*
X017546Y014156D03*
X017152Y014156D03*
X016759Y014156D03*
X016365Y014156D03*
X020152Y017869D03*
X020152Y018262D03*
X020152Y018656D03*
X020152Y019050D03*
X020152Y019443D03*
X021152Y019443D03*
X021152Y019050D03*
X021152Y018656D03*
X021152Y018262D03*
X021152Y017869D03*
X023365Y015156D03*
X023759Y015156D03*
X024152Y015156D03*
X024546Y015156D03*
X024940Y015156D03*
X024940Y014156D03*
X024546Y014156D03*
X024152Y014156D03*
X023759Y014156D03*
X023365Y014156D03*
X027152Y017869D03*
X027152Y018262D03*
X027152Y018656D03*
X027152Y019050D03*
X027152Y019443D03*
X028152Y019443D03*
X028152Y019050D03*
X028152Y018656D03*
X028152Y018262D03*
X028152Y017869D03*
X030365Y015156D03*
X030759Y015156D03*
X031152Y015156D03*
X031546Y015156D03*
X031940Y015156D03*
X031940Y014156D03*
X031546Y014156D03*
X031152Y014156D03*
X030759Y014156D03*
X030365Y014156D03*
X034152Y017869D03*
X034152Y018262D03*
X034152Y018656D03*
X034152Y019050D03*
X034152Y019443D03*
X035152Y019443D03*
X035152Y019050D03*
X035152Y018656D03*
X035152Y018262D03*
X035152Y017869D03*
X031940Y022156D03*
X031546Y022156D03*
X031152Y022156D03*
X030759Y022156D03*
X030365Y022156D03*
X030365Y023156D03*
X030759Y023156D03*
X031152Y023156D03*
X031546Y023156D03*
X031940Y023156D03*
X034152Y025869D03*
X034152Y026262D03*
X034152Y026656D03*
X034152Y027050D03*
X034152Y027443D03*
X035152Y027443D03*
X035152Y027050D03*
X035152Y026656D03*
X035152Y026262D03*
X035152Y025869D03*
X031940Y030156D03*
X031546Y030156D03*
X031152Y030156D03*
X030759Y030156D03*
X030365Y030156D03*
X030365Y031156D03*
X030759Y031156D03*
X031152Y031156D03*
X031546Y031156D03*
X031940Y031156D03*
X028152Y027443D03*
X028152Y027050D03*
X028152Y026656D03*
X028152Y026262D03*
X028152Y025869D03*
X027152Y025869D03*
X027152Y026262D03*
X027152Y026656D03*
X027152Y027050D03*
X027152Y027443D03*
X024940Y030156D03*
X024546Y030156D03*
X024152Y030156D03*
X023759Y030156D03*
X023365Y030156D03*
X023365Y031156D03*
X023759Y031156D03*
X024152Y031156D03*
X024546Y031156D03*
X024940Y031156D03*
X021152Y027443D03*
X021152Y027050D03*
X021152Y026656D03*
X021152Y026262D03*
X021152Y025869D03*
X020152Y025869D03*
X020152Y026262D03*
X020152Y026656D03*
X020152Y027050D03*
X020152Y027443D03*
X017940Y030156D03*
X017546Y030156D03*
X017152Y030156D03*
X016759Y030156D03*
X016365Y030156D03*
X016365Y031156D03*
X016759Y031156D03*
X017152Y031156D03*
X017546Y031156D03*
X017940Y031156D03*
X014152Y027443D03*
X014152Y027050D03*
X014152Y026656D03*
X014152Y026262D03*
X014152Y025869D03*
X013152Y025869D03*
X013152Y026262D03*
X013152Y026656D03*
X013152Y027050D03*
X013152Y027443D03*
X016365Y023156D03*
X016759Y023156D03*
X017152Y023156D03*
X017546Y023156D03*
X017940Y023156D03*
X017940Y022156D03*
X017546Y022156D03*
X017152Y022156D03*
X016759Y022156D03*
X016365Y022156D03*
X023365Y022156D03*
X023759Y022156D03*
X024152Y022156D03*
X024546Y022156D03*
X024940Y022156D03*
X024940Y023156D03*
X024546Y023156D03*
X024152Y023156D03*
X023759Y023156D03*
X023365Y023156D03*
D11*
X005152Y005156D03*
X005152Y040156D03*
X043152Y040156D03*
X043152Y005156D03*
D12*
X040652Y008156D03*
X040652Y009156D03*
X040652Y010156D03*
X040652Y011156D03*
X040652Y012156D03*
X040652Y013156D03*
X040652Y016156D03*
X040652Y017156D03*
X040652Y018156D03*
X040652Y019156D03*
X040652Y020156D03*
X040652Y021156D03*
X040652Y024156D03*
X040652Y025156D03*
X040652Y026156D03*
X040652Y027156D03*
X040652Y028156D03*
X040652Y029156D03*
X040652Y032156D03*
X040652Y033156D03*
X040652Y034156D03*
X040652Y035156D03*
X040652Y036156D03*
X040652Y037156D03*
X035652Y037156D03*
X035652Y036156D03*
X035652Y035156D03*
X035652Y034156D03*
X035652Y033156D03*
X035652Y032156D03*
X033652Y032156D03*
X033652Y033156D03*
X033652Y034156D03*
X033652Y035156D03*
X033652Y036156D03*
X033652Y037156D03*
X028652Y037156D03*
X028652Y036156D03*
X028652Y035156D03*
X028652Y034156D03*
X028652Y033156D03*
X028652Y032156D03*
X026652Y032156D03*
X026652Y033156D03*
X026652Y034156D03*
X026652Y035156D03*
X026652Y036156D03*
X026652Y037156D03*
X021652Y037156D03*
X021652Y036156D03*
X021652Y035156D03*
X021652Y034156D03*
X021652Y033156D03*
X021652Y032156D03*
X019652Y032156D03*
X019652Y033156D03*
X019652Y034156D03*
X019652Y035156D03*
X019652Y036156D03*
X019652Y037156D03*
X014652Y037156D03*
X014652Y036156D03*
X014652Y035156D03*
X014652Y034156D03*
X014652Y033156D03*
X014652Y032156D03*
X012652Y032156D03*
X012652Y033156D03*
X012652Y034156D03*
X012652Y035156D03*
X012652Y036156D03*
X012652Y037156D03*
X007652Y037156D03*
X007652Y036156D03*
X007652Y035156D03*
X007652Y034156D03*
X007652Y033156D03*
X007652Y032156D03*
X007652Y029156D03*
X007652Y028156D03*
X007652Y027156D03*
X007652Y026156D03*
X007652Y025156D03*
X007652Y024156D03*
X007652Y021156D03*
X007652Y020156D03*
X007652Y019156D03*
X007652Y018156D03*
X007652Y017156D03*
X007652Y016156D03*
X007652Y013156D03*
X007652Y012156D03*
X007652Y011156D03*
X007652Y010156D03*
X007652Y009156D03*
X007652Y008156D03*
X012652Y008156D03*
X012652Y009156D03*
X012652Y010156D03*
X012652Y011156D03*
X012652Y012156D03*
X012652Y013156D03*
X014652Y013156D03*
X014652Y012156D03*
X014652Y011156D03*
X014652Y010156D03*
X014652Y009156D03*
X014652Y008156D03*
X019652Y008156D03*
X019652Y009156D03*
X019652Y010156D03*
X019652Y011156D03*
X019652Y012156D03*
X019652Y013156D03*
X021652Y013156D03*
X021652Y012156D03*
X021652Y011156D03*
X021652Y010156D03*
X021652Y009156D03*
X021652Y008156D03*
X026652Y008156D03*
X026652Y009156D03*
X026652Y010156D03*
X026652Y011156D03*
X026652Y012156D03*
X026652Y013156D03*
X028652Y013156D03*
X028652Y012156D03*
X028652Y011156D03*
X028652Y010156D03*
X028652Y009156D03*
X028652Y008156D03*
X033652Y008156D03*
X033652Y009156D03*
X033652Y010156D03*
X033652Y011156D03*
X033652Y012156D03*
X033652Y013156D03*
X035652Y013156D03*
X035652Y012156D03*
X035652Y011156D03*
X035652Y010156D03*
X035652Y009156D03*
X035652Y008156D03*
X035652Y016156D03*
X035652Y017156D03*
X035652Y018156D03*
X035652Y019156D03*
X035652Y020156D03*
X035652Y021156D03*
X033652Y021156D03*
X033652Y020156D03*
X033652Y019156D03*
X033652Y018156D03*
X033652Y017156D03*
X033652Y016156D03*
X028652Y016156D03*
X028652Y017156D03*
X028652Y018156D03*
X028652Y019156D03*
X028652Y020156D03*
X028652Y021156D03*
X026652Y021156D03*
X026652Y020156D03*
X026652Y019156D03*
X026652Y018156D03*
X026652Y017156D03*
X026652Y016156D03*
X021652Y016156D03*
X021652Y017156D03*
X021652Y018156D03*
X021652Y019156D03*
X021652Y020156D03*
X021652Y021156D03*
X019652Y021156D03*
X019652Y020156D03*
X019652Y019156D03*
X019652Y018156D03*
X019652Y017156D03*
X019652Y016156D03*
X014652Y016156D03*
X014652Y017156D03*
X014652Y018156D03*
X014652Y019156D03*
X014652Y020156D03*
X014652Y021156D03*
X012652Y021156D03*
X012652Y020156D03*
X012652Y019156D03*
X012652Y018156D03*
X012652Y017156D03*
X012652Y016156D03*
X012652Y024156D03*
X012652Y025156D03*
X012652Y026156D03*
X012652Y027156D03*
X012652Y028156D03*
X012652Y029156D03*
X014652Y029156D03*
X014652Y028156D03*
X014652Y027156D03*
X014652Y026156D03*
X014652Y025156D03*
X014652Y024156D03*
X019652Y024156D03*
X019652Y025156D03*
X019652Y026156D03*
X019652Y027156D03*
X019652Y028156D03*
X019652Y029156D03*
X021652Y029156D03*
X021652Y028156D03*
X021652Y027156D03*
X021652Y026156D03*
X021652Y025156D03*
X021652Y024156D03*
X026652Y024156D03*
X026652Y025156D03*
X026652Y026156D03*
X026652Y027156D03*
X026652Y028156D03*
X026652Y029156D03*
X028652Y029156D03*
X028652Y028156D03*
X028652Y027156D03*
X028652Y026156D03*
X028652Y025156D03*
X028652Y024156D03*
X033652Y024156D03*
X033652Y025156D03*
X033652Y026156D03*
X033652Y027156D03*
X033652Y028156D03*
X033652Y029156D03*
X035652Y029156D03*
X035652Y028156D03*
X035652Y027156D03*
X035652Y026156D03*
X035652Y025156D03*
X035652Y024156D03*
M02*
