%
M48
M72
T01C0.0118
T02C0.0197
T03C0.0400
T04C0.0787
%
T01
X9002Y9056
X9002Y10606
X9002Y12206
X10652Y12506
X10652Y10956
X10652Y9356
X10652Y7806
X16002Y9056
X17652Y9356
X17652Y7806
X16002Y10606
X16002Y12206
X17652Y12506
X17652Y10956
X17652Y15806
X16002Y17056
X17652Y17356
X17652Y18956
X16002Y18606
X16002Y20206
X17652Y20506
X17652Y23806
X17652Y25356
X16002Y25056
X16002Y26606
X17652Y26956
X17652Y28506
X16002Y28206
X17652Y31806
X17652Y33356
X16002Y33056
X16002Y34606
X16002Y36206
X17652Y36506
X17652Y34956
X23002Y34606
X23002Y36206
X24652Y36506
X24652Y34956
X24652Y33356
X24652Y31806
X23002Y33056
X24652Y28506
X24652Y26956
X24652Y25356
X24652Y23806
X23002Y25056
X23002Y26606
X23002Y28206
X30002Y28206
X31652Y28506
X31652Y26956
X30002Y26606
X30002Y25056
X31652Y25356
X31652Y23806
X31652Y20506
X30002Y20206
X30002Y18606
X31652Y18956
X31652Y17356
X30002Y17056
X31652Y15806
X31652Y12506
X31652Y10956
X30002Y10606
X30002Y12206
X31652Y9356
X31652Y7806
X30002Y9056
X24652Y9356
X24652Y7806
X23002Y9056
X23002Y10606
X23002Y12206
X24652Y12506
X24652Y10956
X24652Y15806
X24652Y17356
X24652Y18956
X24652Y20506
X23002Y20206
X23002Y18606
X23002Y17056
X10652Y17356
X10652Y18956
X10652Y20506
X9002Y20206
X9002Y18606
X9002Y17056
X10652Y15806
X10652Y23806
X10652Y25356
X10652Y26956
X10652Y28506
X9002Y28206
X9002Y26606
X9002Y25056
X10652Y31806
X10652Y33356
X10652Y34956
X10652Y36506
X9002Y36206
X9002Y34606
X9002Y33056
X30002Y33056
X31652Y33356
X31652Y31806
X30002Y34606
X30002Y36206
X31652Y36506
X31652Y34956
X37002Y34606
X37002Y36206
X38652Y36506
X38652Y34956
X38652Y33356
X38652Y31806
X37002Y33056
X38652Y28506
X38652Y26956
X38652Y25356
X38652Y23806
X37002Y25056
X37002Y26606
X37002Y28206
X38652Y20506
X38652Y18956
X38652Y17356
X38652Y15806
X37002Y17056
X37002Y18606
X37002Y20206
X38652Y12506
X38652Y10956
X38652Y9356
X38652Y7806
X37002Y9056
X37002Y10606
X37002Y12206
T02
X35152Y11443
X35152Y11050
X35152Y10656
X35152Y10262
X35152Y9869
X34152Y9869
X34152Y10262
X34152Y10656
X34152Y11050
X34152Y11443
X31940Y14156
X31546Y14156
X31152Y14156
X30759Y14156
X30365Y14156
X30365Y15156
X30759Y15156
X31152Y15156
X31546Y15156
X31940Y15156
X34152Y17869
X34152Y18262
X34152Y18656
X34152Y19050
X34152Y19443
X35152Y19443
X35152Y19050
X35152Y18656
X35152Y18262
X35152Y17869
X37365Y15156
X37759Y15156
X38152Y15156
X38546Y15156
X38940Y15156
X38940Y14156
X38546Y14156
X38152Y14156
X37759Y14156
X37365Y14156
X41152Y11443
X41152Y11050
X41152Y10656
X41152Y10262
X41152Y9869
X38940Y7156
X38546Y7156
X38152Y7156
X37759Y7156
X37365Y7156
X31940Y7156
X31546Y7156
X31152Y7156
X30759Y7156
X30365Y7156
X28152Y9869
X28152Y10262
X28152Y10656
X28152Y11050
X28152Y11443
X27152Y11443
X27152Y11050
X27152Y10656
X27152Y10262
X27152Y9869
X24940Y7156
X24546Y7156
X24152Y7156
X23759Y7156
X23365Y7156
X21152Y9869
X21152Y10262
X21152Y10656
X21152Y11050
X21152Y11443
X20152Y11443
X20152Y11050
X20152Y10656
X20152Y10262
X20152Y9869
X17940Y7156
X17546Y7156
X17152Y7156
X16759Y7156
X16365Y7156
X14152Y9869
X14152Y10262
X14152Y10656
X14152Y11050
X14152Y11443
X13152Y11443
X13152Y11050
X13152Y10656
X13152Y10262
X13152Y9869
X10940Y7156
X10546Y7156
X10152Y7156
X9759Y7156
X9365Y7156
X7152Y9869
X7152Y10262
X7152Y10656
X7152Y11050
X7152Y11443
X9365Y14156
X9759Y14156
X10152Y14156
X10546Y14156
X10940Y14156
X10940Y15156
X10546Y15156
X10152Y15156
X9759Y15156
X9365Y15156
X7152Y17869
X7152Y18262
X7152Y18656
X7152Y19050
X7152Y19443
X9365Y22156
X9759Y22156
X10152Y22156
X10546Y22156
X10940Y22156
X10940Y23156
X10546Y23156
X10152Y23156
X9759Y23156
X9365Y23156
X7152Y25869
X7152Y26262
X7152Y26656
X7152Y27050
X7152Y27443
X9365Y30156
X9759Y30156
X10152Y30156
X10546Y30156
X10940Y30156
X10940Y31156
X10546Y31156
X10152Y31156
X9759Y31156
X9365Y31156
X7152Y33869
X7152Y34262
X7152Y34656
X7152Y35050
X7152Y35443
X9365Y38156
X9759Y38156
X10152Y38156
X10546Y38156
X10940Y38156
X13152Y35443
X13152Y35050
X13152Y34656
X13152Y34262
X13152Y33869
X14152Y33869
X14152Y34262
X14152Y34656
X14152Y35050
X14152Y35443
X16365Y38156
X16759Y38156
X17152Y38156
X17546Y38156
X17940Y38156
X20152Y35443
X20152Y35050
X20152Y34656
X20152Y34262
X20152Y33869
X21152Y33869
X21152Y34262
X21152Y34656
X21152Y35050
X21152Y35443
X23365Y38156
X23759Y38156
X24152Y38156
X24546Y38156
X24940Y38156
X27152Y35443
X27152Y35050
X27152Y34656
X27152Y34262
X27152Y33869
X28152Y33869
X28152Y34262
X28152Y34656
X28152Y35050
X28152Y35443
X30365Y38156
X30759Y38156
X31152Y38156
X31546Y38156
X31940Y38156
X34152Y35443
X34152Y35050
X34152Y34656
X34152Y34262
X34152Y33869
X35152Y33869
X35152Y34262
X35152Y34656
X35152Y35050
X35152Y35443
X37365Y38156
X37759Y38156
X38152Y38156
X38546Y38156
X38940Y38156
X41152Y35443
X41152Y35050
X41152Y34656
X41152Y34262
X41152Y33869
X38940Y31156
X38546Y31156
X38152Y31156
X37759Y31156
X37365Y31156
X37365Y30156
X37759Y30156
X38152Y30156
X38546Y30156
X38940Y30156
X41152Y27443
X41152Y27050
X41152Y26656
X41152Y26262
X41152Y25869
X38940Y23156
X38546Y23156
X38152Y23156
X37759Y23156
X37365Y23156
X37365Y22156
X37759Y22156
X38152Y22156
X38546Y22156
X38940Y22156
X41152Y19443
X41152Y19050
X41152Y18656
X41152Y18262
X41152Y17869
X35152Y25869
X35152Y26262
X35152Y26656
X35152Y27050
X35152Y27443
X34152Y27443
X34152Y27050
X34152Y26656
X34152Y26262
X34152Y25869
X31940Y23156
X31546Y23156
X31152Y23156
X30759Y23156
X30365Y23156
X30365Y22156
X30759Y22156
X31152Y22156
X31546Y22156
X31940Y22156
X28152Y19443
X28152Y19050
X28152Y18656
X28152Y18262
X28152Y17869
X27152Y17869
X27152Y18262
X27152Y18656
X27152Y19050
X27152Y19443
X24940Y22156
X24546Y22156
X24152Y22156
X23759Y22156
X23365Y22156
X23365Y23156
X23759Y23156
X24152Y23156
X24546Y23156
X24940Y23156
X27152Y25869
X27152Y26262
X27152Y26656
X27152Y27050
X27152Y27443
X28152Y27443
X28152Y27050
X28152Y26656
X28152Y26262
X28152Y25869
X30365Y30156
X30759Y30156
X31152Y30156
X31546Y30156
X31940Y30156
X31940Y31156
X31546Y31156
X31152Y31156
X30759Y31156
X30365Y31156
X24940Y31156
X24546Y31156
X24152Y31156
X23759Y31156
X23365Y31156
X23365Y30156
X23759Y30156
X24152Y30156
X24546Y30156
X24940Y30156
X21152Y27443
X21152Y27050
X21152Y26656
X21152Y26262
X21152Y25869
X20152Y25869
X20152Y26262
X20152Y26656
X20152Y27050
X20152Y27443
X17940Y30156
X17546Y30156
X17152Y30156
X16759Y30156
X16365Y30156
X16365Y31156
X16759Y31156
X17152Y31156
X17546Y31156
X17940Y31156
X14152Y27443
X14152Y27050
X14152Y26656
X14152Y26262
X14152Y25869
X13152Y25869
X13152Y26262
X13152Y26656
X13152Y27050
X13152Y27443
X16365Y23156
X16759Y23156
X17152Y23156
X17546Y23156
X17940Y23156
X17940Y22156
X17546Y22156
X17152Y22156
X16759Y22156
X16365Y22156
X14152Y19443
X14152Y19050
X14152Y18656
X14152Y18262
X14152Y17869
X13152Y17869
X13152Y18262
X13152Y18656
X13152Y19050
X13152Y19443
X16365Y15156
X16759Y15156
X17152Y15156
X17546Y15156
X17940Y15156
X17940Y14156
X17546Y14156
X17152Y14156
X16759Y14156
X16365Y14156
X20152Y17869
X20152Y18262
X20152Y18656
X20152Y19050
X20152Y19443
X21152Y19443
X21152Y19050
X21152Y18656
X21152Y18262
X21152Y17869
X23365Y15156
X23759Y15156
X24152Y15156
X24546Y15156
X24940Y15156
X24940Y14156
X24546Y14156
X24152Y14156
X23759Y14156
X23365Y14156
T03
X21652Y13156
X21652Y12156
X21652Y11156
X21652Y10156
X21652Y9156
X21652Y8156
X19652Y8156
X19652Y9156
X19652Y10156
X19652Y11156
X19652Y12156
X19652Y13156
X19652Y16156
X19652Y17156
X19652Y18156
X19652Y19156
X19652Y20156
X19652Y21156
X21652Y21156
X21652Y20156
X21652Y19156
X21652Y18156
X21652Y17156
X21652Y16156
X26652Y16156
X26652Y17156
X26652Y18156
X26652Y19156
X26652Y20156
X26652Y21156
X28652Y21156
X28652Y20156
X28652Y19156
X28652Y18156
X28652Y17156
X28652Y16156
X28652Y13156
X28652Y12156
X28652Y11156
X28652Y10156
X28652Y9156
X28652Y8156
X26652Y8156
X26652Y9156
X26652Y10156
X26652Y11156
X26652Y12156
X26652Y13156
X33652Y13156
X33652Y12156
X33652Y11156
X33652Y10156
X33652Y9156
X33652Y8156
X35652Y8156
X35652Y9156
X35652Y10156
X35652Y11156
X35652Y12156
X35652Y13156
X35652Y16156
X35652Y17156
X35652Y18156
X35652Y19156
X35652Y20156
X35652Y21156
X33652Y21156
X33652Y20156
X33652Y19156
X33652Y18156
X33652Y17156
X33652Y16156
X40652Y16156
X40652Y17156
X40652Y18156
X40652Y19156
X40652Y20156
X40652Y21156
X40652Y24156
X40652Y25156
X40652Y26156
X40652Y27156
X40652Y28156
X40652Y29156
X40652Y32156
X40652Y33156
X40652Y34156
X40652Y35156
X40652Y36156
X40652Y37156
X35652Y37156
X35652Y36156
X35652Y35156
X35652Y34156
X35652Y33156
X35652Y32156
X33652Y32156
X33652Y33156
X33652Y34156
X33652Y35156
X33652Y36156
X33652Y37156
X28652Y37156
X28652Y36156
X28652Y35156
X28652Y34156
X28652Y33156
X28652Y32156
X26652Y32156
X26652Y33156
X26652Y34156
X26652Y35156
X26652Y36156
X26652Y37156
X21652Y37156
X21652Y36156
X21652Y35156
X21652Y34156
X21652Y33156
X21652Y32156
X19652Y32156
X19652Y33156
X19652Y34156
X19652Y35156
X19652Y36156
X19652Y37156
X14652Y37156
X14652Y36156
X14652Y35156
X14652Y34156
X14652Y33156
X14652Y32156
X12652Y32156
X12652Y33156
X12652Y34156
X12652Y35156
X12652Y36156
X12652Y37156
X7652Y37156
X7652Y36156
X7652Y35156
X7652Y34156
X7652Y33156
X7652Y32156
X7652Y29156
X7652Y28156
X7652Y27156
X7652Y26156
X7652Y25156
X7652Y24156
X7652Y21156
X7652Y20156
X7652Y19156
X7652Y18156
X7652Y17156
X7652Y16156
X7652Y13156
X7652Y12156
X7652Y11156
X7652Y10156
X7652Y9156
X7652Y8156
X12652Y8156
X12652Y9156
X12652Y10156
X12652Y11156
X12652Y12156
X12652Y13156
X14652Y13156
X14652Y12156
X14652Y11156
X14652Y10156
X14652Y9156
X14652Y8156
X14652Y16156
X14652Y17156
X14652Y18156
X14652Y19156
X14652Y20156
X14652Y21156
X12652Y21156
X12652Y20156
X12652Y19156
X12652Y18156
X12652Y17156
X12652Y16156
X12652Y24156
X12652Y25156
X12652Y26156
X12652Y27156
X12652Y28156
X12652Y29156
X14652Y29156
X14652Y28156
X14652Y27156
X14652Y26156
X14652Y25156
X14652Y24156
X19652Y24156
X19652Y25156
X19652Y26156
X19652Y27156
X19652Y28156
X19652Y29156
X21652Y29156
X21652Y28156
X21652Y27156
X21652Y26156
X21652Y25156
X21652Y24156
X26652Y24156
X26652Y25156
X26652Y26156
X26652Y27156
X26652Y28156
X26652Y29156
X28652Y29156
X28652Y28156
X28652Y27156
X28652Y26156
X28652Y25156
X28652Y24156
X33652Y24156
X33652Y25156
X33652Y26156
X33652Y27156
X33652Y28156
X33652Y29156
X35652Y29156
X35652Y28156
X35652Y27156
X35652Y26156
X35652Y25156
X35652Y24156
X40652Y13156
X40652Y12156
X40652Y11156
X40652Y10156
X40652Y9156
X40652Y8156
T04
X5152Y5156
X5152Y40156
X43152Y40156
X43152Y5156
M30
